<svg xmlns="http://www.w3.org/2000/svg" xmlns:xlink="http://www.w3.org/1999/xlink" style="vertical-align:-7.255ex" width="29.998ex" height="15.634ex" viewBox="0 -3607.9 12915.6 6731.4"><defs><path id="i" stroke-width="1" d="M127 463q-27 0-42 17t-16 44q0 55 48 98t116 43q35 0 44-1 74-12 113-53t40-89q0-52-34-101t-94-71l-3-2q0-1 9-3t29-9 38-21q82-53 82-140 0-79-62-138T238-22q-80 0-138 43T42 130q0 28 18 45t45 18q28 0 46-18t18-45q0-11-3-20t-7-16-11-12-12-8-10-4-8-3l-4-1q51-45 124-45 55 0 83 53 17 33 17 101v20q0 95-64 127-15 6-61 7l-42 1-3 2q-2 3-2 16 0 18 8 18 28 0 58 5 34 5 62 42t28 112v8q0 57-35 79-22 14-47 14-32 0-59-11t-38-23-11-12h3q3-1 8-2t10-5 12-7 10-11 8-15 3-20q0-22-14-39t-45-18z"/><path id="a" stroke-width="1" d="M296 0q-18 3-132 3Q58 3 49 0h-9v62h52q52 0 52 2 244 618 253 625 6 9 37 9 29 0 37-9 4-3 67-159t125-312l61-154q0-2 52-2h52V0h-11q-21 3-159 3-149 0-173-3h-13v62h45q44 0 44 1l-44 112H262l-22-55q-22-55-23-56 0-2 44-2h45V0h-10zm94 237l102 1-52 127q-50 126-52 126-101-252-101-254h103z"/><path id="f" stroke-width="1" d="M33 157q0 101 76 192t171 92q51 0 90-49 16 30 46 30 13 0 23-8t10-20q0-13-37-160T374 68q0-25 7-33t21-9q9 1 20 9 21 20 41 96 6 20 10 21 2 1 10 1h4q19 0 19-9 0-6-5-27t-20-54-32-50Q436 0 417-8q-8-2-24-2-34 0-57 15t-30 31l-6 15q-1 1-4-1l-4-4q-59-56-120-56-55 0-97 40T33 157zm318 171q0 6-5 22t-23 35-46 20q-35 0-67-31t-50-81q-29-79-41-164v-11q0-8-1-12 0-45 18-62t43-18q38 0 75 33t44 51q2 4 27 107t26 111z"/><path id="g" stroke-width="1" d="M213 578l-13-5q-14-5-40-10t-58-7H83v46h19q47 2 87 15t56 24 28 22q2 3 12 3 9 0 17-6V361l1-300q7-7 12-9t24-4 62-2h26V0h-11q-21 3-159 3-136 0-157-3H88v46h64q16 0 25 1t16 3 8 2 6 5 6 4v517z"/><path id="h" stroke-width="1" d="M109 429q-27 0-43 18t-16 44q0 71 53 123t132 52q91 0 152-56t62-145q0-43-20-82t-48-68-80-74q-36-31-100-92l-59-56 76-1q157 0 167 5 7 2 24 89v3h40v-3q-1-3-13-91T421 3V0H50v31q0 7 6 15t30 35q29 32 50 56 9 10 34 37t34 37 29 33 28 34 23 30 21 32 15 29 13 32 7 30 3 33q0 63-34 109t-97 46q-33 0-58-17t-35-33-10-19q0-1 5-1 18 0 37-14t19-46q0-25-16-42t-45-18z"/><path id="j" stroke-width="1" d="M78 250q0 24 17 42t43 18q24 0 42-16t19-43q0-25-17-43t-43-18-43 17-18 43zm447 0q0 24 17 42t43 18q24 0 42-16t19-43q0-25-17-43t-43-18-43 17-18 43zm447 0q0 24 17 42t43 18q24 0 42-16t19-43q0-25-17-43t-43-18-43 17-18 43z"/><path id="l" stroke-width="1" d="M21 287q1 6 3 16t12 38 20 47 33 37 46 17q36 0 60-18t30-34 6-21q0-2 1-2l11 11q61 64 139 64 54 0 87-27t34-79-38-157-38-127q0-26 17-26 6 0 9 1 29 5 52 38t35 80q2 8 20 8 20 0 20-8 0-1-4-15-8-29-22-57t-46-56-69-27q-47 0-68 27t-21 56q0 19 36 120t37 152q0 59-44 59h-5q-86 0-145-101l-7-12-33-134Q156 26 151 16q-13-27-43-27-13 0-21 6T76 7t-2 10q0 13 38 163t40 163q1 5 1 23 0 39-24 39-38 0-63-100-6-20-6-21-2-6-19-6H27q-6 6-6 9z"/><path id="b" stroke-width="1" d="M56 347q0 13 14 20h637q15-8 15-20 0-11-14-19l-318-1H72q-16 5-16 20zm0-194q0 15 16 20h636q14-10 14-20 0-13-15-20H70q-14 7-14 20z"/><path id="k" stroke-width="1" d="M21 287q1 6 3 16t12 38 20 47 32 37 44 17 43-7 30-18 16-22 8-19l2-7q0-2 1-2l11 11q60 64 141 64 17 0 31-2t26-7 19-10 15-12 10-13 8-13 4-12 3-9 2-7l8 10q63 75 149 75 54 0 87-27t34-79q0-51-38-158T704 50q1-14 5-19t15-5q28 0 52 30t39 82q3 11 6 13t16 2q20 0 20-8 0-1-4-15-8-29-22-57t-46-56-69-27q-47 0-68 27t-21 56q0 19 36 120t37 152q0 59-44 59h-5q-86 0-145-101l-7-12-33-134Q433 26 428 16q-13-27-43-27-13 0-21 7T353 8t-3 10q0 11 34 143l36 146q3 15 3 38 0 59-44 59h-5q-86 0-145-101l-7-12-33-134Q156 26 151 16q-13-27-43-27-13 0-21 6T76 7t-2 10q0 13 38 164 39 154 39 161 3 15 3 27 0 36-25 36-22 0-37-28t-23-61-12-36q-2-2-16-2H27q-6 6-6 9z"/><path id="c" stroke-width="1" d="M319-645v1799h347v-84H403V-645h-84z"/><path id="e" stroke-width="1" d="M319-644v1799h84V-560h263v-84H319z"/><path id="d" stroke-width="1" d="M319 0v602h84V0h-84z"/><path id="m" stroke-width="1" d="M0 1070v84h347V-645h-84v1715H0z"/><path id="o" stroke-width="1" d="M263-560v1715h84V-644H0v84h263z"/><path id="n" stroke-width="1" d="M263 0v602h84V0h-84z"/></defs><g fill="currentColor" stroke="currentColor" stroke-width="0" transform="scale(1 -1)"><use xlink:href="#a"/><use x="1147" xlink:href="#b"/><g transform="translate(2203 3550)"><use y="-1155" xlink:href="#c"/><use transform="matrix(1 0 0 5.12914 0 -4843.87)" xlink:href="#d"/><use y="-5955" xlink:href="#e"/></g><g transform="translate(3023)"><g transform="translate(133 2750)"><use xlink:href="#f"/><g transform="matrix(.707 0 0 .707 529 -150)"><use xlink:href="#g"/><use x="500" xlink:href="#g"/></g></g><g transform="translate(133 1350)"><use xlink:href="#f"/><g transform="matrix(.707 0 0 .707 529 -150)"><use xlink:href="#h"/><use x="500" xlink:href="#g"/></g></g><g transform="translate(133 -50)"><use xlink:href="#f"/><g transform="matrix(.707 0 0 .707 529 -150)"><use xlink:href="#i"/><use x="500" xlink:href="#g"/></g></g><use x="216" y="-1450" xlink:href="#j"/><g transform="translate(0 -2850)"><use xlink:href="#f"/><g transform="matrix(.707 0 0 .707 529 -150)"><use xlink:href="#k"/><use x="878" xlink:href="#g"/></g></g></g><g transform="translate(5627)"><g transform="translate(133 2750)"><use xlink:href="#f"/><g transform="matrix(.707 0 0 .707 529 -150)"><use xlink:href="#g"/><use x="500" xlink:href="#h"/></g></g><g transform="translate(133 1350)"><use xlink:href="#f"/><g transform="matrix(.707 0 0 .707 529 -150)"><use xlink:href="#h"/><use x="500" xlink:href="#h"/></g></g><g transform="translate(133 -50)"><use xlink:href="#f"/><g transform="matrix(.707 0 0 .707 529 -150)"><use xlink:href="#i"/><use x="500" xlink:href="#h"/></g></g><use x="216" y="-1450" xlink:href="#j"/><g transform="translate(0 -2850)"><use xlink:href="#f"/><g transform="matrix(.707 0 0 .707 529 -150)"><use xlink:href="#k"/><use x="878" xlink:href="#h"/></g></g></g><g transform="translate(8232)"><use y="2750" xlink:href="#j"/><use y="1350" xlink:href="#j"/><use y="-50" xlink:href="#j"/><use y="-2850" xlink:href="#j"/></g><g transform="translate(10404)"><g transform="translate(133 2750)"><use xlink:href="#f"/><g transform="matrix(.707 0 0 .707 529 -150)"><use xlink:href="#g"/><use x="500" xlink:href="#l"/></g></g><g transform="translate(133 1350)"><use xlink:href="#f"/><g transform="matrix(.707 0 0 .707 529 -150)"><use xlink:href="#h"/><use x="500" xlink:href="#l"/></g></g><g transform="translate(133 -50)"><use xlink:href="#f"/><g transform="matrix(.707 0 0 .707 529 -150)"><use xlink:href="#i"/><use x="500" xlink:href="#l"/></g></g><use x="251" y="-1450" xlink:href="#j"/><g transform="translate(0 -2850)"><use xlink:href="#f"/><g transform="matrix(.707 0 0 .707 529 -150)"><use xlink:href="#k"/><use x="878" xlink:href="#l"/></g></g></g><g transform="translate(12247 3550)"><use y="-1155" xlink:href="#m"/><use transform="matrix(1 0 0 5.12914 0 -4843.87)" xlink:href="#n"/><use y="-5955" xlink:href="#o"/></g></g></svg>