<svg xmlns="http://www.w3.org/2000/svg" xmlns:xlink="http://www.w3.org/1999/xlink" style="vertical-align:-3.005ex" width="50.455ex" height="6.884ex" viewBox="0 -1670.4 21723.8 2964.1"><defs><path id="h" stroke-width="1" d="M73 647q0 10 4 23t12 13q1 0 72 5t73 6q12 0 12-9t-34-143q-8-34-17-70t-15-54l-4-19q0-3 6 3 49 40 101 40 62 0 100-46t39-116q0-111-79-201T173-11q-50 0-91 38T40 150v9q0 21 8 58t49 197q50 197 50 209t-38 14H83q-3 0-7 3t-3 7zm263-322v6q0 74-61 74-17 0-35-8t-33-21-26-24-18-22l-6-8-21-86q-22-86-22-122 0-48 24-72 16-16 40-16 33 0 67 32 25 23 40 56t33 105q18 72 18 106z"/><path id="a" stroke-width="1" d="M447 131h11q20 0 20-14 0-5-7-22t-32-44-62-42Q330-6 286-6q-90 0-151 41-96 61-96 187 0 102 62 162 68 69 185 69 73 0 125-22t53-78q0-34-19-51t-50-18q-35 0-52 21t-18 48q0 27 13 43h-5q-16 2-38 2h-3q-12 0-21-1t-26-7-27-17-21-35-14-55q-1-8-1-52 0-32 2-51t9-48 27-47 50-28q19-7 47-7h9q59 0 88 65 5 12 9 14t24 2z"/><path id="c" stroke-width="1" d="M78 35v25l16 43 43 18q28 0 50-25t23-88q0-35-9-68t-21-57-26-41-24-27-13-9q-4 0-13 9t-9 13q0 4 11 16t25 30 26 50 16 73V9l-1-1q-2-1-5-2t-6-3-9-2-12-1q-27 0-44 17z"/><path id="d" stroke-width="1" d="M297 596q0 31 21 48t43 17q17 0 28-10t14-28q0-28-19-47t-44-19q-18 0-30 10t-13 29zm-9-220q0 29-26 29-22 0-42-12t-35-31-24-37-17-32l-7-14q-2-1-16-1h-14q-6 6-6 8t4 13q21 49 59 92t88 50h8q7 0 12 1 24-1 44-10 25-14 38-31t13-53v-16l-49-199Q267-67 264-75q-18-50-70-89T75-204q-50 0-68 21t-19 46q0 27 19 46t46 20q17 0 29-10t13-31q0-36-32-55 6-1 14-1 34 0 62 28t43 66l11 42q11 43 26 104t32 125 27 111 11 57q0 7-1 11z"/><path id="e" stroke-width="1" d="M56 347q0 13 14 20h637q15-8 15-20 0-11-14-19l-318-1H72q-16 5-16 20zm0-194q0 15 16 20h636q14-10 14-20 0-13-15-20H70q-14 7-14 20z"/><path id="f" stroke-width="1" d="M33 157q0 101 76 192t171 92q51 0 90-49 16 30 46 30 13 0 23-8t10-20q0-13-37-160T374 68q0-25 7-33t21-9q9 1 20 9 21 20 41 96 6 20 10 21 2 1 10 1h4q19 0 19-9 0-6-5-27t-20-54-32-50Q436 0 417-8q-8-2-24-2-34 0-57 15t-30 31l-6 15q-1 1-4-1l-4-4q-59-56-120-56-55 0-97 40T33 157zm318 171q0 6-5 22t-23 35-46 20q-35 0-67-31t-50-81q-29-79-41-164v-11q0-8-1-12 0-45 18-62t43-18q38 0 75 33t44 51q2 4 27 107t26 111z"/><path id="g" stroke-width="1" d="M213 578l-13-5q-14-5-40-10t-58-7H83v46h19q47 2 87 15t56 24 28 22q2 3 12 3 9 0 17-6V361l1-300q7-7 12-9t24-4 62-2h26V0h-11q-21 3-159 3-136 0-157-3H88v46h64q16 0 25 1t16 3 8 2 6 5 6 4v517z"/><path id="b" stroke-width="1" d="M184 600q0 24 19 42t44 19q18 0 30-12t13-30q0-23-20-42t-44-20q-15 0-28 10t-14 33zM21 287q0 8 9 31t24 51 44 51 60 22q39 0 65-23t27-62q0-17-14-56t-40-105-42-113q-5-22-5-32 0-25 17-25 9 0 19 3t23 14 27 35 25 59q3 12 5 14t17 2q20 0 20-10 0-8-9-31t-25-51-45-50-62-22q-32 0-59 21T74 74q0 17 5 32t43 114q38 101 44 121t7 39q0 24-17 24h-2q-30 0-55-33t-38-84q-1-1-2-3t-1-3-2-2-3-1-4 0-8 0H27q-6 6-6 9z"/><path id="i" stroke-width="1" d="M56 237v13l14 20h299v150l1 150q10 13 19 13 13 0 20-15V270h298q15-8 15-20t-15-20H409V-68q-8-14-18-14h-4q-12 0-18 14v298H70q-14 7-14 20z"/><path id="j" stroke-width="1" d="M109 429q-27 0-43 18t-16 44q0 71 53 123t132 52q91 0 152-56t62-145q0-43-20-82t-48-68-80-74q-36-31-100-92l-59-56 76-1q157 0 167 5 7 2 24 89v3h40v-3q-1-3-13-91T421 3V0H50v31q0 7 6 15t30 35q29 32 50 56 9 10 34 37t34 37 29 33 28 34 23 30 21 32 15 29 13 32 7 30 3 33q0 63-34 109t-97 46q-33 0-58-17t-35-33-10-19q0-1 5-1 18 0 37-14t19-46q0-25-16-42t-45-18z"/><path id="k" stroke-width="1" d="M78 250q0 24 17 42t43 18q24 0 42-16t19-43q0-25-17-43t-43-18-43 17-18 43zm447 0q0 24 17 42t43 18q24 0 42-16t19-43q0-25-17-43t-43-18-43 17-18 43zm447 0q0 24 17 42t43 18q24 0 42-16t19-43q0-25-17-43t-43-18-43 17-18 43z"/><path id="l" stroke-width="1" d="M21 287q1 6 3 16t12 38 20 47 33 37 46 17q36 0 60-18t30-34 6-21q0-2 1-2l11 11q61 64 139 64 54 0 87-27t34-79-38-157-38-127q0-26 17-26 6 0 9 1 29 5 52 38t35 80q2 8 20 8 20 0 20-8 0-1-4-15-8-29-22-57t-46-56-69-27q-47 0-68 27t-21 56q0 19 36 120t37 152q0 59-44 59h-5q-86 0-145-101l-7-12-33-134Q156 26 151 16q-13-27-43-27-13 0-21 6T76 7t-2 10q0 13 38 163t40 163q1 5 1 23 0 39-24 39-38 0-63-100-6-20-6-21-2-6-19-6H27q-6 6-6 9z"/><path id="m" stroke-width="1" d="M60 948q3 2 605 2h602l58-135q59-138 63-146h-40l-7 14q-21 41-56 78-50 48-111 77t-141 43-151 17-183 4H251l8-11q463-633 465-639 1-2 0-6-3-3-264-302L196-356q0-1 211-1h141q89 0 128-1 136 0 220 5t167 21 141 49 103 87q21 26 41 72h40q0-1-7-21t-25-65-31-84l-58-155-601-1q-602 0-605 2-6 2-6 9 0 2 2 6l533 610q0 1-33 45T452 366 322 544L56 909l-1 15q0 21 5 24z"/><path id="n" stroke-width="1" d="M21 287q1 3 2 8t5 22 10 31 15 33 20 30 26 22 33 9q29 0 51-12t31-22 11-20q2-6 3-6t8 7q48 52 111 52h3q48 0 72-41 8-19 8-37 0-30-13-48t-26-23-25-4q-20 0-32 11t-12 29q0 48 56 64-22 13-36 13-56 0-103-74-10-16-15-33t-34-133Q156 25 151 16q-13-27-43-27-13 0-21 6T76 7t-2 10q0 13 40 172t40 177q0 39-26 39-21 0-36-28t-24-61-11-36q-2-2-16-2H27q-6 6-6 9z"/></defs><g fill="currentColor" stroke="currentColor" stroke-width="0" transform="scale(1 -1)"><use xlink:href="#a"/><g transform="matrix(.707 0 0 .707 511 -150)"><use xlink:href="#b"/><use x="345" xlink:href="#c"/><use x="624" xlink:href="#d"/></g><use x="1622" xlink:href="#e"/><g transform="translate(2678)"><use xlink:href="#f"/><g transform="matrix(.707 0 0 .707 529 -150)"><use xlink:href="#b"/><use x="345" xlink:href="#c"/><use x="624" xlink:href="#g"/></g></g><g transform="translate(4103)"><use xlink:href="#h"/><g transform="matrix(.707 0 0 .707 429 -150)"><use xlink:href="#g"/><use x="500" xlink:href="#c"/><use x="779" xlink:href="#d"/></g></g><use x="5697" xlink:href="#i"/><g transform="translate(6698)"><use xlink:href="#f"/><g transform="matrix(.707 0 0 .707 529 -150)"><use xlink:href="#b"/><use x="345" xlink:href="#c"/><use x="624" xlink:href="#j"/></g></g><g transform="translate(8122)"><use xlink:href="#h"/><g transform="matrix(.707 0 0 .707 429 -150)"><use xlink:href="#j"/><use x="500" xlink:href="#c"/><use x="779" xlink:href="#d"/></g></g><use x="9716" xlink:href="#i"/><use x="10717" xlink:href="#k"/><use x="12112" xlink:href="#i"/><g transform="translate(13113)"><use xlink:href="#f"/><g transform="matrix(.707 0 0 .707 529 -150)"><use xlink:href="#b"/><use x="345" xlink:href="#c"/><use x="624" xlink:href="#l"/></g></g><g transform="translate(14608)"><use xlink:href="#h"/><g transform="matrix(.707 0 0 .707 429 -150)"><use xlink:href="#l"/><use x="600" xlink:href="#c"/><use x="879" xlink:href="#d"/></g></g><use x="16328" xlink:href="#e"/><g transform="translate(17385)"><use xlink:href="#m"/><g transform="matrix(.707 0 0 .707 110 -1090)"><use xlink:href="#n"/><use x="451" xlink:href="#e"/><use x="1230" xlink:href="#g"/></g><use x="721" y="1627" transform="scale(.707)" xlink:href="#l"/></g><g transform="translate(18996)"><use xlink:href="#f"/><g transform="matrix(.707 0 0 .707 529 -150)"><use xlink:href="#b"/><use x="345" xlink:href="#c"/><use x="624" xlink:href="#n"/></g></g><g transform="translate(20386)"><use xlink:href="#h"/><g transform="matrix(.707 0 0 .707 429 -150)"><use xlink:href="#n"/><use x="451" xlink:href="#c"/><use x="730" xlink:href="#d"/></g></g></g></svg>